<svg width="32" height="32" viewBox="0 0 32 32" fill="none" xmlns="http://www.w3.org/2000/svg">
<path d="M6 29.3333C5.46667 29.3333 5 29.1333 4.6 28.7333C4.2 28.3333 4 27.8666 4 27.3333V9.66665C4 9.13331 4.2 8.66665 4.6 8.26665C5 7.86665 5.46667 7.66665 6 7.66665H9.66667C9.66667 5.91109 10.2556 4.41665 11.4333 3.18331C12.6111 1.94998 14.0778 1.33331 15.8333 1.33331C17.5889 1.33331 19.1111 1.95081 20.4 3.18581C21.6889 4.42081 22.3333 5.91442 22.3333 7.66665H26C26.5333 7.66665 27 7.86665 27.4 8.26665C27.8 8.66665 28 9.13331 28 9.66665V27.3333C28 27.8666 27.8 28.3333 27.4 28.7333C27 29.1333 26.5333 29.3333 26 29.3333H6ZM6 27.3333H26V9.66665H6V27.3333ZM16 17.6666C17.7556 17.6666 19.2778 17.0222 20.5667 15.7333C21.8556 14.4444 22.5 12.9222 22.5 11.1666H20.5C20.5 12.3889 20.0556 13.4444 19.1667 14.3333C18.2778 15.2222 17.2222 15.6666 16 15.6666C14.7778 15.6666 13.7222 15.2222 12.8333 14.3333C11.9444 13.4444 11.5 12.3889 11.5 11.1666H9.5C9.5 12.9222 10.1444 14.4444 11.4333 15.7333C12.7222 17.0222 14.2444 17.6666 16 17.6666ZM11.6667 7.66665H20.3333C20.3333 6.44442 19.9167 5.41665 19.0833 4.58331C18.25 3.74998 17.2222 3.33331 16 3.33331C14.7778 3.33331 13.75 3.74998 12.9167 4.58331C12.0833 5.41665 11.6667 6.44442 11.6667 7.66665Z" fill="#372E3F"/>
</svg>
