<svg width="32" height="32" viewBox="0 0 32 32" fill="none" xmlns="http://www.w3.org/2000/svg">
<path d="M16 27.9667L14.6334 26.7333C12.283 24.5751 10.3398 22.7133 8.80389 21.148C7.26798 19.5826 6.04446 18.1833 5.13335 16.95C4.22224 15.7167 3.58335 14.6 3.21669 13.6C2.85002 12.6 2.66669 11.5889 2.66669 10.5667C2.66669 8.56321 3.33891 6.89014 4.68335 5.54742C6.0278 4.20469 7.68891 3.53333 9.66669 3.53333C10.9334 3.53333 12.1056 3.83333 13.1834 4.43333C14.2611 5.03333 15.2 5.89999 16 7.03333C16.9334 5.83333 17.9222 4.94999 18.9667 4.38333C20.0111 3.81666 21.1334 3.53333 22.3334 3.53333C24.3111 3.53333 25.9722 4.20469 27.3167 5.54742C28.6611 6.89014 29.3334 8.56321 29.3334 10.5667C29.3334 11.5889 29.15 12.6 28.7834 13.6C28.4167 14.6 27.7778 15.7167 26.8667 16.95C25.9556 18.1833 24.7321 19.5826 23.1962 21.148C21.6602 22.7133 19.7171 24.5751 17.3667 26.7333L16 27.9667ZM16 25.3333C18.2497 23.2668 20.101 21.4946 21.554 20.0167C23.0069 18.5389 24.1611 17.2444 25.0167 16.1333C25.8722 15.0222 26.4722 14.0318 26.8167 13.1622C27.1611 12.2925 27.3334 11.4289 27.3334 10.5715C27.3334 9.1016 26.8667 7.89444 25.9334 6.94999C25 6.00555 23.8025 5.53333 22.3409 5.53333C21.1959 5.53333 20.1362 5.88333 19.1617 6.58333C18.1872 7.28333 17.4 8.26666 16.8 9.53333H15.1667C14.5889 8.28888 13.8128 7.3111 12.8384 6.59999C11.8639 5.88888 10.8042 5.53333 9.65919 5.53333C8.19752 5.53333 7.00002 6.00555 6.06669 6.94999C5.13335 7.89444 4.66669 9.1035 4.66669 10.5772C4.66669 11.4368 4.83891 12.3055 5.18335 13.1833C5.5278 14.0611 6.1278 15.0611 6.98335 16.1833C7.83891 17.3055 9.00002 18.6 10.4667 20.0667C11.9334 21.5333 13.7778 23.2889 16 25.3333Z" fill="#372E3F"/>
</svg>
