<svg width="48" height="48" viewBox="0 0 48 48" fill="none" xmlns="http://www.w3.org/2000/svg">
<path d="M14.5 42V35.5H10V32.5H14.5V27H10V24H14.5V6H27.5C30.4273 6 32.9091 7.0188 34.9454 9.0564C36.9818 11.094 38 13.5773 38 16.5064C38 19.4355 36.9818 21.9167 34.9454 23.95C32.9091 25.9833 30.4273 27 27.5 27H17.5V32.5H26V35.5H17.5V42H14.5ZM17.5 24H27.5C29.6 24 31.375 23.275 32.825 21.825C34.275 20.375 35 18.6 35 16.5C35 14.4 34.275 12.625 32.825 11.175C31.375 9.725 29.6 9 27.5 9H17.5V24Z" fill="#94DEB2"/>
</svg>
